<svg width="200" height="200" viewBox="0 0 200 200" fill="none" xmlns="http://www.w3.org/2000/svg">
<rect width="200" height="200" rx="20" fill="#C8F1ED"/>
<g clip-path="url(#clip0_1_13)">
<path opacity="0.2" d="M79.4784 184.607C76.6084 183.933 74.2064 182.358 70.8449 178.944C65.2299 173.24 60.6732 170.866 52.7532 169.516C44.5374 168.115 40.8863 165.092 38.6913 157.87C35.9819 148.956 33.15 144.687 26.9278 140.137C19.8694 134.975 18.0584 130.423 19.7812 122.174C21.3769 114.534 20.7659 109.102 17.5251 102.118C13.6584 93.7848 14.1357 89.3321 19.6276 82.5049C24.6623 76.2462 26.2425 72.1091 26.9966 63.2131C27.7574 54.2356 30.2801 50.5525 37.7096 47.5717C43.9102 45.0842 49.2148 40.7658 52.1556 35.8113C55.5564 30.082 56.0528 29.4252 58.1599 27.8686C61.5601 25.357 64.3093 24.6609 69.5451 24.986C78.6399 25.5506 83.5146 24.4693 89.6222 20.5327C97.5855 15.4 102.414 15.4 110.378 20.5327C116.485 24.4693 121.36 25.5506 130.455 24.986C139.055 24.452 142.634 26.6874 147.877 35.8684C150.475 40.4182 155.785 44.8463 161.597 47.3089C169.875 50.8165 172.28 54.0178 172.891 62.3371C173.552 71.3469 175.418 76.3844 180.36 82.5049C185.864 89.3199 186.344 93.7767 182.474 102.118C179.235 109.102 178.622 114.534 180.218 122.174C181.942 130.423 180.13 134.975 173.072 140.137C166.85 144.687 164.019 148.956 161.309 157.87C159.114 165.092 155.462 168.115 147.247 169.516C139.31 170.869 134.748 173.25 129.155 178.962C122.955 185.292 118.51 186.338 109.842 183.5C102.752 181.18 97.294 181.17 90.2327 183.465C85.2863 185.072 82.6497 185.352 79.4784 184.607Z" fill="black"/>
<path d="M79.4784 182.925C76.6084 182.25 74.2064 180.674 70.8449 177.26C65.2299 171.558 60.6732 169.183 52.7532 167.834C44.5374 166.434 40.8863 163.409 38.6913 156.188C35.9819 147.273 33.15 143.004 26.9278 138.454C19.8694 133.292 18.0584 128.74 19.7812 120.491C21.3769 112.851 20.7659 107.419 17.5251 100.435C13.6584 92.1016 14.1357 87.6489 19.6276 80.8219C24.6623 74.563 26.2425 70.4259 26.9966 61.5299C27.7574 52.5524 30.2801 48.8693 37.7096 45.8887C43.9102 43.401 49.2148 39.0826 52.1556 34.1281C55.5564 28.3988 56.0528 27.742 58.1599 26.1856C61.5601 23.6738 64.3093 22.9777 69.5451 23.3028C78.6399 23.8674 83.5146 22.7863 89.6222 18.8496C97.5855 13.7168 102.414 13.7168 110.378 18.8496C116.485 22.7863 121.36 23.8674 130.455 23.3028C139.055 22.7688 142.634 25.0042 147.877 34.1852C150.475 38.7351 155.785 43.1631 161.597 45.6258C169.875 49.1333 172.28 52.3346 172.891 60.654C173.552 69.6637 175.418 74.7012 180.36 80.8219C185.864 87.6367 186.344 92.0936 182.474 100.435C179.235 107.419 178.622 112.851 180.218 120.491C181.942 128.74 180.13 133.292 173.072 138.454C166.85 143.004 164.019 147.273 161.309 156.188C159.114 163.409 155.462 166.434 147.247 167.834C139.31 169.185 134.748 171.568 129.155 177.279C122.955 183.61 118.51 184.654 109.842 181.818C102.752 179.497 97.294 179.487 90.2327 181.782C85.2863 183.389 82.6497 183.669 79.4784 182.925Z" fill="white"/>
<path d="M130.472 92.0193C129.937 90.9376 130.395 89.6398 131.488 89.1098C132.58 88.5799 133.891 89.0341 134.426 90.1156C134.962 91.1973 134.503 92.4951 133.41 93.0251C132.318 93.555 131.007 93.1008 130.472 92.0193ZM141.101 113.65C140.565 112.569 141.024 111.271 142.117 110.741C143.209 110.211 144.52 110.665 145.055 111.747C145.59 112.828 145.132 114.126 144.039 114.656C142.947 115.186 141.636 114.732 141.101 113.65ZM142.029 85.5839C135.038 80.6412 125.917 79.365 117.473 82.5989L140.554 129.593C148.332 125.018 152.943 117.112 153.336 108.621L162.096 109.238C162.598 109.27 163.036 108.902 163.068 108.394C163.102 107.896 162.73 107.464 162.217 107.432L153.346 106.804C153.259 103.105 152.364 99.3307 150.583 95.6965C148.802 92.0733 146.355 89.045 143.471 86.6872L148.452 79.3866C148.736 78.9756 148.627 78.4132 148.212 78.132C147.797 77.8507 147.229 77.9589 146.945 78.37L142.029 85.5732" fill="#3DDC84"/>
<path d="M120.75 103.278C114.239 106.393 107.237 107.972 99.9398 107.972C83.4995 107.972 68.5666 99.7091 59.8604 86.5573C59.1722 85.519 57.7521 85.2702 56.7362 86.0056L48.3576 92.1165C47.4072 92.8087 47.1887 94.1282 47.855 95.1016C59.2923 112.006 78.6602 122.595 99.9398 122.595C109.476 122.595 118.641 120.529 127.173 116.452L120.75 103.278Z" fill="#4285F4"/>
<path d="M99.8636 51.2876H104.397V41.3696C104.397 38.8929 102.365 36.8812 99.8636 36.8812C97.362 36.8812 95.3301 38.8929 95.3301 41.3696V51.2876H99.8636Z" fill="#4285F4"/>
<path d="M88.0655 70.6477L56.8998 134.157C56.2227 135.531 55.8622 137.023 55.8294 138.548L55.6437 146.865C55.5999 149.018 58.1125 150.229 59.7947 148.866L66.2834 143.588C67.4741 142.626 68.4354 141.414 69.1128 140.041L99.8305 77.429L88.0764 70.6584L88.0655 70.6477Z" fill="#4285F4"/>
<path d="M143.908 138.537C143.875 137.012 143.504 135.52 142.838 134.146L111.672 70.6367L99.9178 77.429L130.636 140.019C131.313 141.393 132.274 142.593 133.465 143.567L139.954 148.845C141.636 150.207 144.159 148.996 144.105 146.844L143.919 138.526L143.908 138.537Z" fill="#4285F4"/>
<path d="M99.863 50.498C92.3584 50.498 86.2629 56.544 86.2629 63.9635C86.2629 71.3831 92.3693 77.429 99.863 77.429C107.357 77.429 113.463 71.3831 113.463 63.9635C113.463 56.544 107.357 50.498 99.863 50.498ZM99.863 71.3723C95.7448 71.3723 92.3803 68.0518 92.3803 63.9635C92.3803 59.8752 95.7338 56.5548 99.863 56.5548C103.992 56.5548 107.346 59.8752 107.346 63.9635C107.346 68.0518 103.992 71.3723 99.863 71.3723Z" fill="#073042"/>
</g>
<defs>
<clipPath id="clip0_1_13">
<rect width="170" height="170" fill="white" transform="translate(15 15)"/>
</clipPath>
</defs>
</svg>
