<svg width="200" height="200" viewBox="0 0 200 200" fill="none" xmlns="http://www.w3.org/2000/svg">
<rect width="200" height="200" rx="20" fill="#C8F1ED"/>
<path d="M171.352 67.0401C171.351 64.3497 170.776 61.9725 169.612 59.9322C168.469 57.9259 166.757 56.2443 164.461 54.9147C145.51 43.9869 126.539 33.0925 107.593 22.1536C102.486 19.2048 97.5334 19.3123 92.4636 22.3034C84.9201 26.7522 47.1527 48.39 35.8985 54.9086C31.2637 57.5916 29.0084 61.6979 29.0072 67.035C29 89.0115 29.0072 110.987 29 132.964C29 135.596 29.552 137.927 30.6643 139.936C31.8078 142.003 33.5435 143.731 35.8923 145.091C47.1471 151.61 84.9195 173.246 92.4613 177.696C97.5334 180.688 102.486 180.795 107.595 177.845C126.541 166.906 145.513 156.012 164.468 145.084C166.816 143.725 168.552 141.996 169.696 139.931C170.806 137.921 171.359 135.59 171.359 132.958C171.359 132.958 171.359 89.0171 171.352 67.0401Z" fill="#A179DC"/>
<path d="M100.397 99.7856L30.6643 139.936C31.8078 142.003 33.5434 143.731 35.8923 145.091C47.1471 151.61 84.9195 173.246 92.4613 177.696C97.5334 180.688 102.486 180.795 107.595 177.845C126.541 166.906 145.513 156.012 164.468 145.084C166.816 143.725 168.552 141.996 169.696 139.931L100.397 99.7856Z" fill="#280068"/>
<path d="M171.352 67.0401C171.351 64.3497 170.776 61.9725 169.612 59.9322L100.398 99.7856L169.696 139.931C170.806 137.921 171.358 135.59 171.359 132.958C171.359 132.958 171.359 89.0171 171.352 67.0401Z" fill="#390091"/>
<path d="M141.454 84.7759V92.2807H148.959V84.7759H152.711V92.2807H160.216V96.0332H152.711V103.538H160.216V107.29H152.711V114.795H148.959V107.29H141.454V114.795H137.702V107.29H130.197V103.538H137.702V96.0332H130.197V92.2807H137.702V84.7759H141.454ZM148.959 96.0332H141.454V103.538H148.959V96.0332Z" fill="white"/>
<path d="M100.551 47.0847C120.126 47.0847 137.216 57.7158 146.37 73.5177L146.281 73.3656L123.25 86.6269C118.712 78.9438 110.394 73.759 100.851 73.6522L100.551 73.6505C85.9986 73.6505 74.201 85.4475 74.201 99.9995C74.201 104.758 75.4697 109.219 77.6761 113.072C82.218 121.001 90.7561 126.349 100.551 126.349C110.405 126.349 118.992 120.933 123.511 112.919L123.401 113.112L146.398 126.434C137.344 142.102 120.488 152.7 101.14 152.912L100.551 152.915C80.9137 152.915 63.7744 142.218 54.6433 126.333C50.1857 118.578 47.6351 109.587 47.6351 99.9995C47.6351 70.7758 71.3256 47.0847 100.551 47.0847Z" fill="white"/>
</svg>
