<svg width="200" height="200" viewBox="0 0 200 200" fill="none" xmlns="http://www.w3.org/2000/svg">
<rect width="200" height="200" rx="20" fill="#C8F1ED"/>
<path d="M50 150C50 136.193 61.193 125 75 125H100V150C100 163.807 88.807 175 75 175C61.193 175 50 163.807 50 150Z" fill="#24CB71"/>
<path d="M100 25V75H125C138.807 75 150 63.807 150 50C150 36.193 138.807 25 125 25H100Z" fill="#FF7237"/>
<path d="M124.792 125C138.599 125 149.792 113.807 149.792 100C149.792 86.1929 138.599 75 124.792 75C110.985 75 99.7917 86.1929 99.7917 100C99.7917 113.807 110.985 125 124.792 125Z" fill="#00B6FF"/>
<path d="M50 50C50 63.807 61.193 75 75 75H100V25H75C61.193 25 50 36.193 50 50Z" fill="#FF3737"/>
<path d="M50 100C50 113.807 61.193 125 75 125H100V75H75C61.193 75 50 86.193 50 100Z" fill="#874FFF"/>
</svg>
