<svg width="200" height="200" viewBox="0 0 200 200" fill="none" xmlns="http://www.w3.org/2000/svg">
<rect width="200" height="200" rx="20" fill="#C8F1ED"/>
<path d="M176.985 92.8738L107.127 23.0205C106.17 22.0629 105.034 21.3033 103.783 20.785C102.532 20.2668 101.192 20 99.8381 20C98.4843 20 97.1438 20.2668 95.8931 20.785C94.6425 21.3033 93.5062 22.0629 92.5492 23.0205L78.0482 37.5285L96.4461 55.9264C98.6091 55.1919 100.935 55.0772 103.159 55.5954C105.384 56.1136 107.419 57.2439 109.035 58.8587C110.66 60.4851 111.794 62.536 112.308 64.7768C112.822 67.0176 112.695 69.3578 111.941 71.5297L129.679 89.2625C131.852 88.5079 134.193 88.3808 136.434 88.8957C138.676 89.4107 140.727 90.5468 142.352 92.1738C143.491 93.3121 144.394 94.6636 145.01 96.151C145.626 97.6384 145.943 99.2326 145.943 100.843C145.943 102.453 145.626 104.047 145.01 105.534C144.394 107.022 143.491 108.373 142.352 109.511C140.05 111.811 136.93 113.102 133.676 113.102C130.423 113.102 127.302 111.811 125.001 109.511C123.291 107.799 122.126 105.618 121.652 103.245C121.179 100.872 121.418 98.4111 122.34 96.1734L105.798 79.6369V123.163C107.544 124.025 109.06 125.291 110.219 126.856C111.378 128.421 112.148 130.239 112.465 132.161C112.781 134.082 112.635 136.051 112.039 137.905C111.443 139.759 110.414 141.444 109.037 142.821C107.899 143.96 106.547 144.863 105.06 145.479C103.572 146.095 101.978 146.412 100.368 146.412C98.7583 146.412 97.1641 146.095 95.6767 145.479C94.1893 144.863 92.8378 143.96 91.6995 142.821C90.5607 141.683 89.6573 140.331 89.041 138.844C88.4247 137.356 88.1074 135.762 88.1074 134.152C88.1074 132.541 88.4247 130.947 89.041 129.459C89.6573 127.972 90.5607 126.62 91.6995 125.482C92.8466 124.333 94.2102 123.422 95.7113 122.802V78.876C94.2163 78.2602 92.8577 77.3551 91.7135 76.2127C90.5694 75.0703 89.6622 73.713 89.0441 72.219C88.4261 70.7249 88.1093 69.1235 88.112 67.5066C88.1146 65.8898 88.4368 64.2894 89.0598 62.7974L70.9196 44.6537L23.0146 92.5464C21.0842 94.4806 20 97.1017 20 99.8344C20 102.567 21.0842 105.188 23.0146 107.122L92.8766 176.984C94.8107 178.914 97.4314 179.998 100.164 179.998C102.896 179.998 105.517 178.914 107.451 176.984L176.985 107.45C178.916 105.516 180 102.894 180 100.162C180 97.4291 178.916 94.808 176.985 92.8738Z" fill="#F03C2E"/>
</svg>
