<svg width="200" height="200" viewBox="0 0 200 200" fill="none" xmlns="http://www.w3.org/2000/svg">
<rect width="200" height="200" rx="20" fill="#C8F1ED"/>
<path fill-rule="evenodd" clip-rule="evenodd" d="M99.7408 15C51.7754 15 13 53.9583 13 102.155C13 140.681 37.8447 173.293 72.3109 184.835C76.6201 185.703 78.1985 182.96 78.1985 180.653C78.1985 178.632 78.0565 171.706 78.0565 164.49C53.9273 169.686 48.9026 154.101 48.9026 154.101C45.0249 144 39.2793 141.404 39.2793 141.404C31.3819 136.065 39.8546 136.065 39.8546 136.065C48.615 136.642 53.2118 145.011 53.2118 145.011C60.9654 158.285 73.4597 154.535 78.4861 152.225C79.2035 146.598 81.5027 142.702 83.9441 140.538C64.6993 138.517 44.4514 131.014 44.4514 97.5368C44.4514 88.0132 47.8959 80.2216 53.3538 74.1618C52.4927 71.9978 49.4761 63.0498 54.2167 51.0736C54.2167 51.0736 61.5407 48.7645 78.0547 60.0199C85.1249 58.1121 92.4164 57.1416 99.7408 57.1334C107.065 57.1334 114.531 58.1446 121.425 60.0199C137.941 48.7645 145.265 51.0736 145.265 51.0736C150.005 63.0498 146.987 71.9978 146.126 74.1618C151.728 80.2216 155.03 88.0132 155.03 97.5368C155.03 131.014 134.782 138.372 115.394 140.538C118.554 143.279 121.281 148.473 121.281 156.699C121.281 168.386 121.139 177.766 121.139 180.651C121.139 182.96 122.719 185.703 127.027 184.837C161.493 173.291 186.338 140.681 186.338 102.155C186.48 53.9583 147.562 15 99.7408 15Z" fill="#24292F"/>
</svg>
