<svg width="512" height="512" viewBox="0 0 512 512" fill="none" xmlns="http://www.w3.org/2000/svg">
<g clip-path="url(#clip0_36_273)">
<rect width="512" height="512" fill="#0B3531"/>
<g filter="url(#filter0_i_36_273)">
<path d="M321.207 64C330.14 64.0001 338.959 66.0051 347.015 69.8672C350.014 71.3051 352.887 72.9916 355.605 74.9082L358.374 76.8594C361.381 78.9795 364.074 81.5131 366.374 84.3848C369.394 88.156 371.691 92.4536 373.147 97.0605L373.733 98.9131C374.551 101.501 375.156 104.151 375.54 106.838L376.073 110.571C376.668 114.734 376.638 118.962 375.981 123.115C375.306 127.387 373.966 131.551 372.03 135.418C369.987 139.499 367.288 143.247 364.058 146.473L363.314 147.217C355.668 154.854 345.708 159.745 334.989 161.127L330.759 161.673H280.237C272.442 161.673 264.693 162.88 257.267 165.254C253.581 166.432 249.99 167.893 246.528 169.622L238.334 173.714C226.824 179.462 216.478 187.292 207.819 196.807L207.526 197.129L202.938 203.239C199.308 208.074 196.164 213.255 193.554 218.708L193.016 219.831C191.084 223.866 189.505 228.061 188.298 232.369C186.391 239.171 185.425 246.202 185.425 253.267V266.962C185.425 271.24 185.827 275.509 186.629 279.712C187.608 284.849 189.177 289.855 191.303 294.633L193.462 299.484L196.479 305.011C199.816 311.12 203.806 316.849 208.381 322.096L209.537 323.422C216.181 331.042 224.116 337.432 232.976 342.3L235.458 343.758C241.359 347.225 247.759 349.761 254.433 351.276C257.538 351.981 260.69 352.462 263.863 352.716L265.045 352.81C272.211 353.382 279.421 353.022 286.495 351.737L290.574 350.996L293.41 350.288C296.864 349.426 300.193 348.128 303.319 346.425L303.92 346.098C305.29 345.351 306.605 344.506 307.854 343.57L308.364 343.188C310.337 341.711 312.104 339.976 313.618 338.031L314.704 336.637C315.58 335.512 316.294 334.269 316.824 332.945C318.044 329.898 318.246 326.537 317.399 323.365L317.311 323.037C316.473 319.896 314.71 317.078 312.252 314.95L310.139 313.12C307.397 310.747 304.178 308.99 300.699 307.968L299.129 307.507C296.12 306.623 293.001 306.174 289.865 306.174H285.969C283.688 306.174 281.415 305.916 279.193 305.403C275.647 304.586 272.279 303.134 269.25 301.117L264.144 297.717C259.928 294.909 256.309 291.294 253.497 287.08C249.288 280.773 247.041 273.361 247.041 265.778V265.521C247.041 261.429 247.682 257.362 248.939 253.468L251.323 246.084C252.91 241.169 255.644 236.703 259.298 233.053C260.501 231.851 261.797 230.745 263.173 229.746L263.262 229.682C266.705 227.18 270.588 225.347 274.709 224.28L279.29 223.094C284.114 221.844 289.078 221.213 294.061 221.213H400.952C405.442 221.213 409.871 222.257 413.888 224.263L415.584 225.11C419.24 226.936 422.321 229.736 424.489 233.2C426.699 236.733 427.872 240.816 427.872 244.983V298.358C427.872 306.672 427.084 314.967 425.518 323.132C423.082 335.841 418.785 348.121 412.765 359.575L407.779 369.06L399.927 380.173C394.458 387.911 388.275 395.118 381.459 401.699C374.909 408.024 367.8 413.744 360.222 418.791L357.352 420.702C348.13 426.843 338.317 432.049 328.06 436.24L326.775 436.765C318.286 440.234 309.499 442.923 300.522 444.8L299.639 444.984C290.049 446.989 280.279 448 270.482 448H256.417C244.386 447.11 232.46 445.141 220.781 442.116L220.251 441.979L207.187 437.281C193.631 432.406 180.777 425.765 168.958 417.528C161.642 412.43 154.754 406.742 148.363 400.522L131.845 384.446L121.799 373.073L111.753 359.024L106.394 349.658L103.046 342.3L102.661 341.454C98.4588 332.22 94.9727 322.675 92.2343 312.906L91.9579 311.92C88.6419 300.09 86.4969 287.963 85.5536 275.714C84.7148 264.822 84.8294 253.878 85.8964 243.007L86.0321 241.628C87.1035 230.712 89.069 219.852 91.8846 209.251C94.8459 198.102 98.7584 187.172 103.554 176.68L110.413 161.673C121.974 143.463 135.832 126.818 151.646 112.15L155.956 108.153L162.251 103.58C177.627 92.4102 194.466 83.4077 212.295 76.8262C235.276 68.3425 259.58 64.0001 284.078 64H321.207ZM389.004 244.806C388.198 244.262 387.126 244.309 386.369 244.923L366.733 260.845L346.301 255.87C345.307 255.628 344.302 256.066 343.741 256.928C343.182 257.791 343.183 258.901 343.729 259.715L355.975 276.813L348.539 300.978C348.252 301.909 348.608 302.921 349.414 303.466C350.22 304.01 351.293 303.963 352.05 303.349L371.686 287.426L392.119 292.4C393.113 292.643 394.118 292.203 394.681 291.343C395.241 290.481 395.238 289.369 394.691 288.556L394.687 288.554L382.443 271.456L389.879 247.295C390.166 246.363 389.81 245.35 389.004 244.806Z" fill="#008271"/>
</g>
</g>
<defs>
<filter id="filter0_i_36_273" x="81" y="60" width="346.872" height="388" filterUnits="userSpaceOnUse" color-interpolation-filters="sRGB">
<feFlood flood-opacity="0" result="BackgroundImageFix"/>
<feBlend mode="normal" in="SourceGraphic" in2="BackgroundImageFix" result="shape"/>
<feColorMatrix in="SourceAlpha" type="matrix" values="0 0 0 0 0 0 0 0 0 0 0 0 0 0 0 0 0 0 127 0" result="hardAlpha"/>
<feOffset dx="-4" dy="-4"/>
<feGaussianBlur stdDeviation="5"/>
<feComposite in2="hardAlpha" operator="arithmetic" k2="-1" k3="1"/>
<feColorMatrix type="matrix" values="0 0 0 0 0.046446 0 0 0 0 0.635577 0 0 0 0 0.554504 0 0 0 0.5 0"/>
<feBlend mode="lighten" in2="shape" result="effect1_innerShadow_36_273"/>
</filter>
<clipPath id="clip0_36_273">
<rect width="512" height="512" rx="45" fill="white"/>
</clipPath>
</defs>
</svg>
