<svg width="512" height="512" viewBox="0 0 512 512" fill="none" xmlns="http://www.w3.org/2000/svg">
<g clip-path="url(#clip0_28_194)">
<rect width="512" height="512" fill="#C8F1ED"/>
<g filter="url(#filter0_i_28_194)">
<path d="M320.934 64C329.86 64 338.673 66.0057 346.719 69.8682C349.714 71.3056 352.584 72.9906 355.298 74.9062L358.061 76.8574C361.067 78.979 363.759 81.5139 366.057 84.3867C369.073 88.1569 371.366 92.4526 372.82 97.0566L373.407 98.9141C374.224 101.501 374.827 104.151 375.211 106.837L375.745 110.572C376.339 114.734 376.308 118.962 375.652 123.114C374.978 127.386 373.64 131.549 371.706 135.418C369.664 139.501 366.968 143.248 363.74 146.476L363.004 147.213C355.364 154.853 345.407 159.746 334.691 161.129L330.481 161.673H280.018C272.23 161.673 264.489 162.881 257.071 165.255C253.389 166.433 249.804 167.892 246.346 169.621L238.161 173.714C226.664 179.462 216.331 187.29 207.685 196.801L207.387 197.129L202.806 203.236C199.179 208.073 196.039 213.256 193.43 218.71L192.894 219.83C190.964 223.866 189.387 228.062 188.18 232.37C186.276 239.172 185.31 246.202 185.31 253.265V266.963C185.31 271.241 185.713 275.509 186.513 279.711C187.492 284.848 189.059 289.856 191.182 294.635L193.339 299.484L196.355 305.017C199.686 311.122 203.67 316.848 208.238 322.093L209.4 323.426C216.034 331.043 223.958 337.432 232.808 342.3L235.29 343.759C241.182 347.225 247.575 349.76 254.241 351.275C257.342 351.98 260.49 352.462 263.661 352.716L264.841 352.81C271.999 353.382 279.202 353.022 286.267 351.737L290.342 350.996L293.172 350.289C296.623 349.426 299.95 348.127 303.073 346.424L303.672 346.098C305.041 345.351 306.355 344.505 307.603 343.569L308.11 343.189C310.081 341.711 311.847 339.976 313.36 338.031L314.443 336.638C315.319 335.512 316.032 334.269 316.561 332.944C317.78 329.897 317.982 326.537 317.136 323.366L317.05 323.039C316.212 319.896 314.449 317.077 311.991 314.947L309.886 313.123C307.147 310.748 303.928 308.99 300.45 307.967L298.888 307.507C295.882 306.623 292.765 306.174 289.632 306.174H285.742C283.464 306.174 281.193 305.916 278.973 305.403C275.432 304.586 272.068 303.134 269.044 301.118L263.948 297.722C259.732 294.911 256.114 291.292 253.303 287.076C249.1 280.772 246.857 273.364 246.857 265.787V265.521C246.857 261.429 247.497 257.362 248.754 253.468L251.136 246.08C252.721 241.168 255.451 236.703 259.1 233.054C260.303 231.851 261.597 230.745 262.972 229.745L263.058 229.682C266.499 227.18 270.379 225.348 274.497 224.28L279.069 223.095C283.889 221.845 288.848 221.213 293.827 221.213H400.591C405.079 221.213 409.505 222.258 413.519 224.265L415.204 225.107C418.86 226.936 421.941 229.737 424.107 233.203C426.314 236.734 427.484 240.814 427.484 244.978V298.361C427.484 306.673 426.698 314.967 425.135 323.131C422.701 335.841 418.407 348.122 412.391 359.58L407.415 369.06L399.567 380.177C394.107 387.911 387.933 395.117 381.126 401.697C374.581 408.023 367.479 413.746 359.906 418.795L357.04 420.705C347.831 426.844 338.032 432.049 327.788 436.239L326.5 436.766C318.022 440.234 309.246 442.923 300.28 444.8L299.395 444.985C289.817 446.99 280.058 448 270.272 448H256.223C244.206 447.11 232.292 445.14 220.628 442.116L220.097 441.979L207.057 437.284C193.511 432.407 180.667 425.764 168.859 417.526C161.553 412.429 154.676 406.743 148.296 400.526L131.791 384.446L121.757 373.073L111.721 359.024L106.37 349.658L103.024 342.3L102.641 341.457C98.443 332.221 94.961 322.674 92.2253 312.904L91.95 311.922C88.6372 300.091 86.4938 287.963 85.5515 275.713C84.7137 264.822 84.8285 253.878 85.8943 243.007L86.03 241.628C87.1003 230.711 89.0639 219.852 91.8767 209.25C94.8349 198.1 98.7432 187.171 103.534 176.677L110.384 161.673C121.931 143.463 135.777 126.816 151.578 112.144L155.875 108.153L162.175 103.572C177.526 92.4079 194.34 83.409 212.144 76.8291C235.104 68.344 259.387 64 283.865 64H320.934ZM389.004 244.806C388.198 244.262 387.126 244.309 386.369 244.923L366.733 260.845L346.301 255.87C345.307 255.628 344.302 256.066 343.741 256.928C343.182 257.791 343.183 258.901 343.729 259.715L355.975 276.813L348.539 300.978C348.252 301.909 348.608 302.921 349.414 303.466C350.22 304.01 351.293 303.963 352.05 303.349L371.686 287.426L392.119 292.4C393.113 292.643 394.118 292.203 394.68 291.343C395.241 290.481 395.238 289.369 394.691 288.556L394.687 288.554L382.443 271.456L389.879 247.295C390.166 246.363 389.81 245.35 389.004 244.806Z" fill="#067364"/>
</g>
</g>
<defs>
<filter id="filter0_i_28_194" x="80.9988" y="60" width="346.485" height="388" filterUnits="userSpaceOnUse" color-interpolation-filters="sRGB">
<feFlood flood-opacity="0" result="BackgroundImageFix"/>
<feBlend mode="normal" in="SourceGraphic" in2="BackgroundImageFix" result="shape"/>
<feColorMatrix in="SourceAlpha" type="matrix" values="0 0 0 0 0 0 0 0 0 0 0 0 0 0 0 0 0 0 127 0" result="hardAlpha"/>
<feOffset dx="-4" dy="-4"/>
<feGaussianBlur stdDeviation="5"/>
<feComposite in2="hardAlpha" operator="arithmetic" k2="-1" k3="1"/>
<feColorMatrix type="matrix" values="0 0 0 0 0.046446 0 0 0 0 0.635577 0 0 0 0 0.554504 0 0 0 0.5 0"/>
<feBlend mode="lighten" in2="shape" result="effect1_innerShadow_28_194"/>
</filter>
<clipPath id="clip0_28_194">
<rect width="512" height="512" rx="45" fill="white"/>
</clipPath>
</defs>
</svg>
