<svg width="200" height="200" viewBox="0 0 200 200" fill="none" xmlns="http://www.w3.org/2000/svg">
<rect width="200" height="200" rx="20" fill="#C8F1ED"/>
<g clip-path="url(#clip0_4_259)">
<path d="M165.332 25H85.2555C83.9858 24.9999 82.7286 25.2499 81.5555 25.7356C80.3825 26.2214 79.3166 26.9335 78.4187 27.8312L27.8313 78.4187C26.9334 79.3165 26.2213 80.3824 25.7355 81.5554C25.2497 82.7285 24.9998 83.9858 25 85.2555L25 165.332C25 167.896 26.0186 170.355 27.8317 172.168C29.6448 173.981 32.1039 175 34.668 175H114.745C116.014 175 117.271 174.75 118.445 174.265C119.618 173.779 120.683 173.067 121.581 172.169L172.166 121.581C173.064 120.684 173.776 119.618 174.262 118.446C174.748 117.273 174.998 116.016 174.998 114.747L175 34.6703C175 33.4005 174.75 32.1431 174.265 30.9698C173.779 29.7966 173.067 28.7305 172.169 27.8325C171.271 26.9345 170.205 26.2222 169.032 25.7362C167.859 25.2501 166.602 25 165.332 25Z" fill="url(#paint0_radial_4_259)"/>
<path d="M146.875 53.125H53.125V146.875H146.875V53.125Z" fill="black"/>
<path d="M102.344 128.125H64.8437V135.156H102.344V128.125ZM64.8391 93.8664H71.8234V70.9562H64.8391V64.825H85.5648V70.9562H78.5805V93.8664H85.5648V100H64.8391V93.8687V93.8664ZM89.7883 93.6672H94.8367C95.7862 93.6848 96.7244 93.4597 97.5625 93.0133C98.3594 92.5773 98.9734 91.9633 99.4094 91.1664C99.8453 90.3695 100.063 89.4625 100.063 88.4406V64.825H106.921V88.9187C106.921 91.0281 106.436 92.9242 105.463 94.607C104.512 96.2699 103.121 97.6387 101.444 98.5633C99.7375 99.5195 97.8203 99.9953 95.6922 99.9953H89.7883V93.6672Z" fill="white"/>
</g>
<defs>
<radialGradient id="paint0_radial_4_259" cx="0" cy="0" r="1" gradientUnits="userSpaceOnUse" gradientTransform="translate(169.661 28.975) scale(196.906)">
<stop offset="0.03" stop-color="#FE2857"/>
<stop offset="0.71" stop-color="#007EFF"/>
</radialGradient>
<clipPath id="clip0_4_259">
<rect width="150" height="150" fill="white" transform="translate(25 25)"/>
</clipPath>
</defs>
</svg>
