<svg width="200" height="200" viewBox="0 0 200 200" fill="none" xmlns="http://www.w3.org/2000/svg">
<rect width="200" height="200" rx="20" fill="#C8F1ED"/>
<g clip-path="url(#clip0_1_68)">
<path d="M76.7419 146.431C76.7419 146.431 70.2075 150.405 81.2841 151.542C94.6184 153.242 101.721 152.96 116.479 150.123C119.445 151.94 122.582 153.461 125.845 154.666C92.6422 168.861 50.6256 153.816 76.7419 146.431ZM72.4919 127.981C72.4919 127.981 65.3944 133.373 76.4656 134.515C90.9422 135.934 102.295 136.215 121.888 132.247C123.793 134.179 126.126 135.637 128.698 136.502C88.6738 148.423 43.8256 137.634 72.4919 127.981ZM150.835 160.334C150.835 160.334 155.659 164.308 145.443 167.432C126.424 173.116 65.6812 174.816 48.6494 167.432C42.6887 164.882 54.0416 161.189 57.6806 160.621C61.3728 159.771 63.365 159.771 63.365 159.771C56.8306 155.229 19.9353 169.137 44.6331 173.105C112.474 184.177 168.393 168.282 150.793 160.334H150.835ZM79.8125 108.675C79.8125 108.675 48.8725 116.06 68.7412 118.61C77.2572 119.747 94.0022 119.46 109.616 118.328C122.387 117.191 135.169 114.928 135.169 114.928C135.169 114.928 130.627 116.915 127.503 118.902C95.9997 127.136 35.5328 123.444 52.8516 114.928C67.6097 107.831 79.8178 108.686 79.8178 108.686L79.8125 108.675ZM135.169 139.615C166.959 123.147 152.201 107.262 141.979 109.244C139.429 109.812 138.287 110.381 138.287 110.381C138.287 110.381 139.137 108.681 141.124 108.112C161.28 101.015 177.175 129.399 134.59 140.465C134.59 140.465 134.871 140.184 135.158 139.615H135.169ZM82.9469 184.463C113.6 186.45 160.44 183.327 161.572 168.845C161.572 168.845 159.303 174.529 136.311 178.779C110.195 183.603 77.8363 183.029 58.8175 179.916C58.8175 179.916 62.7912 183.321 82.9469 184.463Z" fill="#4E7896"/>
<path d="M115.916 15.0053C115.916 15.0053 133.517 32.8872 99.1712 59.8534C71.6366 81.7091 92.9291 94.1988 99.1712 108.394C82.9894 93.9172 71.355 81.1406 79.3025 69.2247C90.9369 51.6191 123.014 43.1562 115.916 15.0053ZM106.885 96.4725C115.119 105.838 104.617 114.354 104.617 114.354C104.617 114.354 125.622 103.57 115.969 90.225C107.172 77.4537 100.351 71.2062 137.257 49.9191C137.257 49.9191 79.0687 64.3956 106.885 96.4725Z" fill="#F58219"/>
</g>
<defs>
<clipPath id="clip0_1_68">
<rect width="170" height="170" fill="white" transform="translate(15 15)"/>
</clipPath>
</defs>
</svg>
