<svg width="200" height="200" viewBox="0 0 200 200" fill="none" xmlns="http://www.w3.org/2000/svg">
<rect width="200" height="200" rx="20" fill="#C8F1ED"/>
<path d="M71.4442 116.679C71.1545 116.175 70.9541 115.625 70.8518 115.053C70.9652 115.622 71.1669 116.171 71.4442 116.679ZM72.1727 117.577C72.4525 117.854 72.7676 118.095 73.1167 118.268C72.7679 118.09 72.45 117.856 72.1752 117.577H72.1727Z" fill="#083042"/>
<path d="M100.579 148.426H100.403C98.6352 148.434 96.8946 147.993 95.3435 147.146L59.8235 127.295C57.7274 126.12 56.4381 123.942 56.4381 121.589V81.1988C56.4381 79.4683 56.7519 77.8084 57.4842 76.3564L29.7105 60.8991C28.5597 63.3191 27.9674 66.0516 28.0014 68.9227V135.631C28.0223 137.56 28.5531 139.449 29.5399 141.107C30.5267 142.765 31.9344 144.133 33.6202 145.071L92.2039 177.856C94.7877 179.308 97.6828 180 100.544 180V179.966C100.613 175.782 100.579 159.007 100.579 148.426Z" fill="#083042"/>
<path d="M128.456 83.6843L128.246 83.3742C128.072 83.1322 127.899 82.9243 127.725 82.6836C127.899 82.8903 128.072 83.1335 128.246 83.3742C128.331 83.4669 128.402 83.5706 128.456 83.6843ZM99.2179 67.501C99.3943 67.501 99.5343 67.467 99.7094 67.467C99.5343 67.501 99.3591 67.501 99.2179 67.501Z" fill="#3DDB85"/>
<path d="M57.4488 76.3199C58.2274 74.706 59.4663 73.3588 61.0094 72.448L94.4347 52.9083C95.9659 52.0092 97.7058 51.5265 99.4813 51.5084C101.257 51.4903 103.006 51.9373 104.556 52.805L138.331 71.722C139.847 72.5682 141.148 73.751 142.135 75.1793L169.456 59.0313C167.832 56.6915 165.696 54.752 163.211 53.3596L107.415 22.1324C104.861 20.7054 101.979 19.9706 99.0531 20.0009C96.1275 20.0312 93.2607 20.8255 90.7367 22.3051L35.5724 54.5342C33.0261 56.0216 30.9842 58.2383 29.7104 60.8979L57.4488 76.3199Z" fill="#3DDC84"/>
<path d="M71.5085 84.1027C71.5791 83.9641 71.6484 83.8255 71.7202 83.7246C71.6484 83.862 71.5803 83.9641 71.5085 84.1027Z" fill="#3DDB85"/>
<path d="M169.421 59.0313L142.1 75.1793C143.146 76.7005 143.775 78.4978 143.808 80.3329V118.787C143.829 120.548 143.381 122.284 142.511 123.815C141.641 125.346 140.378 126.619 138.854 127.501L105.427 147.044C103.951 147.903 102.283 148.378 100.575 148.426C100.612 158.974 100.612 175.747 100.541 179.932V179.966C103.471 179.934 106.344 179.147 108.881 177.682L164.047 145.418C169.177 142.409 172.317 136.944 172.247 131.03V67.5729C172.212 64.495 171.165 61.5558 169.421 59.0313Z" fill="#4285F4"/>
<path d="M129.09 114.673C129.055 114.744 129.055 114.813 129.02 114.885C129.059 114.821 129.083 114.748 129.09 114.673ZM128.74 84.138C128.668 83.9641 128.563 83.8255 128.459 83.6528C128.563 83.8255 128.669 83.9994 128.74 84.138ZM103.686 131.548L126.087 118.443L103.686 131.551V131.548ZM128.809 115.469C128.738 115.642 128.634 115.815 128.562 115.989C128.634 115.781 128.703 115.607 128.809 115.469Z" fill="#4285F4"/>
<path d="M71.4089 84.4128C71.1245 85.0846 70.948 85.7971 70.8858 86.5239C70.8505 86.7987 70.8505 87.076 70.8505 87.3886V114.465C70.8505 114.672 70.8505 114.846 70.8858 115.054C70.9564 115.64 71.1656 116.195 71.4782 116.68C71.6887 117.025 71.9319 117.3 72.1777 117.577C72.4575 117.854 72.7701 118.095 73.1179 118.27L96.9164 131.584C97.9519 132.155 99.1165 132.453 100.299 132.447H100.545C101.654 132.409 102.736 132.088 103.686 131.514L126.087 118.408C126.227 118.338 126.331 118.234 126.471 118.166C126.716 117.993 126.96 117.819 127.169 117.611C127.498 117.314 127.8 116.991 128.076 116.643C128.249 116.401 128.425 116.161 128.565 115.917C128.668 115.746 128.74 115.572 128.808 115.398C128.878 115.228 128.984 115.019 129.054 114.812C129.088 114.741 129.088 114.672 129.123 114.604C129.334 113.932 129.44 113.232 129.437 112.528V86.7647C129.437 86.2819 129.366 85.832 129.263 85.3833C129.193 85.0707 129.086 84.7934 128.983 84.5161L128.774 84.1027C128.704 83.9288 128.597 83.7914 128.494 83.6175L128.285 83.3074C128.111 83.0642 127.936 82.8575 127.762 82.6155C127.193 81.953 126.507 81.4017 125.738 80.9896L103.094 68.3001C102.703 68.0794 102.294 67.8938 101.871 67.7455C101.303 67.5741 100.717 67.47 100.125 67.4355H99.6716C99.499 67.4355 99.3591 67.4355 99.1851 67.4682C98.7842 67.5042 98.3871 67.5738 97.9978 67.6762C97.9285 67.7102 97.8592 67.7102 97.7886 67.7468C97.2656 67.8854 96.7765 68.1262 96.2875 68.4022L73.8868 81.5101C73.2366 81.8922 72.6672 82.3973 72.2105 82.9974C72.0378 83.2394 71.8626 83.4814 71.7227 83.7234C71.6534 83.862 71.5841 83.9654 71.5135 84.104L71.4089 84.4128Z" fill="#D6F0FF"/>
<path d="M100.541 132.446H100.297C99.1132 132.452 97.9478 132.155 96.9114 131.584L73.1154 118.269C72.7734 118.079 72.4566 117.846 72.1727 117.577C71.8997 117.311 71.6648 117.008 71.4744 116.677C71.1847 116.173 70.9843 115.623 70.882 115.051C70.8455 114.846 70.8455 114.672 70.8455 114.465V87.386C70.8455 87.11 70.8455 86.8 70.882 86.5214C70.9488 85.7967 71.124 85.0846 71.4051 84.4115L64.9835 80.5056L57.4464 76.3212C56.7481 77.7731 56.4003 79.4318 56.4003 81.1623V121.554C56.4208 122.717 56.7436 123.854 57.337 124.855C57.9303 125.856 58.7737 126.685 59.7844 127.261L95.2729 147.144C96.8177 148.008 98.5625 148.449 100.332 148.425H100.509C100.509 143.271 100.472 139.606 100.472 139.606L100.541 132.446Z" fill="#083042"/>
<path d="M100.541 132.446H100.297C99.1132 132.452 97.9478 132.155 96.9114 131.584L73.1154 118.269C72.7734 118.079 72.4566 117.846 72.1727 117.577C71.8997 117.311 71.6648 117.008 71.4744 116.677C71.1847 116.173 70.9843 115.623 70.882 115.051C70.8455 114.846 70.8455 114.672 70.8455 114.465V87.386C70.8455 87.11 70.8455 86.8 70.882 86.5214C70.9488 85.7967 71.124 85.0846 71.4051 84.4115L64.9835 80.5056L57.4464 76.3212C56.7481 77.7731 56.4003 79.4318 56.4003 81.1623V121.554C56.4208 122.717 56.7436 123.854 57.337 124.855C57.9303 125.856 58.7737 126.685 59.7844 127.261L95.2729 147.144C96.8177 148.008 98.5625 148.449 100.332 148.425H100.509C100.509 143.271 100.472 139.606 100.472 139.606L100.541 132.446Z" fill="#041619"/>
<path d="M138.295 71.722L104.518 52.8037C102.969 51.9364 101.219 51.4898 99.444 51.5081C97.6687 51.5265 95.9291 52.0092 94.3982 52.9083L60.9729 72.4493C59.4218 73.3511 58.1801 74.7014 57.4111 76.3224L64.986 80.5069L71.4051 84.4128L71.5084 84.1027C71.579 83.9628 71.6483 83.8255 71.7176 83.7221C71.8575 83.4801 72.0327 83.2381 72.2067 82.9961C72.6604 82.4075 73.2188 81.9248 73.883 81.5089L96.2824 68.4009C96.7614 68.132 97.2618 67.9136 97.7836 67.7455C97.8541 67.7115 97.9235 67.7115 97.9928 67.6749C98.3818 67.5691 98.7772 67.5002 99.1788 67.4682C99.3527 67.4682 99.4926 67.433 99.6678 67.433H100.122C100.713 67.4708 101.298 67.5729 101.866 67.743C102.296 67.8791 102.703 68.0644 103.087 68.2988L125.731 80.9909C126.495 81.4115 127.181 81.9611 127.758 82.6155C127.931 82.8222 128.107 83.0654 128.28 83.3062L128.49 83.6162L134.282 79.7796L142.133 75.1112C141.12 73.7613 139.83 72.5514 138.295 71.722Z" fill="#3DDB85"/>
<path d="M138.295 71.722L104.518 52.8037C102.969 51.9364 101.219 51.4898 99.444 51.5081C97.6687 51.5265 95.9291 52.0092 94.3982 52.9083L60.9729 72.4493C59.4218 73.3511 58.1801 74.7014 57.4111 76.3224L64.986 80.5069L71.4051 84.4128L71.5084 84.1027C71.579 83.9628 71.6483 83.8255 71.7176 83.7221C71.8575 83.4801 72.0327 83.2381 72.2067 82.9961C72.6604 82.4075 73.2188 81.9248 73.883 81.5089L96.2824 68.4009C96.7614 68.132 97.2618 67.9136 97.7836 67.7455C97.8541 67.7115 97.9235 67.7115 97.9928 67.6749C98.3818 67.5691 98.7772 67.5002 99.1788 67.4682C99.3527 67.4682 99.4926 67.433 99.6678 67.433H100.122C100.713 67.4708 101.298 67.5729 101.866 67.743C102.296 67.8791 102.703 68.0644 103.087 68.2988L125.731 80.9909C126.495 81.4115 127.181 81.9611 127.758 82.6155C127.931 82.8222 128.107 83.0654 128.28 83.3062L128.49 83.6162L134.282 79.7796L142.133 75.1112C141.12 73.7613 139.83 72.5514 138.295 71.722Z" fill="#37BF6E"/>
<path d="M128.456 83.6868C128.561 83.8582 128.631 83.9969 128.735 84.1708L128.945 84.5855C129.238 85.2988 129.392 86.0616 129.399 86.8327V112.597C129.402 113.301 129.295 114.001 129.084 114.672C129.05 114.74 129.05 114.811 129.015 114.879C128.948 115.081 128.867 115.278 128.771 115.469C128.699 115.639 128.595 115.813 128.525 115.985C128.387 116.229 128.212 116.469 128.036 116.713C127.763 117.061 127.46 117.384 127.13 117.679C126.921 117.887 126.677 118.06 126.432 118.234C126.292 118.302 126.189 118.406 126.049 118.476L103.647 131.581C102.683 132.125 101.61 132.445 100.506 132.516V139.674C100.506 139.674 100.506 143.341 100.541 148.493C102.251 148.462 103.923 147.985 105.392 147.11L138.818 127.569C141.925 125.738 143.809 122.417 143.774 118.856V80.401C143.74 78.5331 143.112 76.7686 142.066 75.2473L134.212 79.917L128.456 83.6868Z" fill="#4285F4"/>
<path d="M128.456 83.6868C128.561 83.8582 128.631 83.9969 128.735 84.1708L128.945 84.5855C129.238 85.2988 129.392 86.0616 129.399 86.8327V112.597C129.402 113.301 129.295 114.001 129.084 114.672C129.05 114.74 129.05 114.811 129.015 114.879C128.948 115.081 128.867 115.278 128.771 115.469C128.699 115.639 128.595 115.813 128.525 115.985C128.387 116.229 128.212 116.469 128.036 116.713C127.763 117.061 127.46 117.384 127.13 117.679C126.921 117.887 126.677 118.06 126.432 118.234C126.292 118.302 126.189 118.406 126.049 118.476L103.647 131.581C102.683 132.125 101.61 132.445 100.506 132.516V139.674C100.506 139.674 100.506 143.341 100.541 148.493C102.251 148.462 103.923 147.985 105.392 147.11L138.818 127.569C141.925 125.738 143.809 122.417 143.774 118.856V80.401C143.74 78.5331 143.112 76.7686 142.066 75.2473L134.212 79.917L128.456 83.6868Z" fill="#3870B2"/>
<path d="M97.8227 67.7808C97.2984 67.9195 96.8093 68.1615 96.3228 68.4362L73.9208 81.5442L96.3203 68.4387C96.7859 68.1489 97.2911 67.9281 97.8202 67.7833L97.8227 67.7808Z" fill="#D6F0FF"/>
<path opacity="0.1" d="M97.8227 67.7808C97.2984 67.9195 96.8093 68.1615 96.3228 68.4362L73.9208 81.5442L96.3203 68.4387C96.7859 68.1489 97.2911 67.9281 97.8202 67.7833L97.8227 67.7808Z" fill="black"/>
<path d="M128.945 84.5527C129.052 84.8351 129.145 85.1229 129.223 85.4148C129.153 85.1388 129.046 84.8627 128.943 84.5527H128.945Z" fill="#D6F0FF"/>
<path opacity="0.1" d="M128.945 84.5527C129.052 84.8351 129.145 85.1229 129.223 85.4148C129.153 85.1388 129.046 84.8627 128.943 84.5527H128.945Z" fill="black"/>
</svg>
