<svg width="200" height="200" viewBox="0 0 200 200" fill="none" xmlns="http://www.w3.org/2000/svg">
<rect width="200" height="200" rx="20" fill="#C8F1ED"/>
<path d="M161.431 25H38.5687C31.075 25 25 31.075 25 38.5687V161.431C25 168.925 31.075 175 38.5687 175H161.431C168.925 175 175 168.925 175 161.431V38.5687C175 31.075 168.925 25 161.431 25ZM71.4164 154.52C71.4164 156.701 69.6486 158.469 67.4677 158.469H50.659C48.4781 158.469 46.7103 156.701 46.7103 154.52V84.0588C46.7103 81.8779 48.4781 80.1101 50.659 80.1101H67.4677C69.6486 80.1101 71.4164 81.8779 71.4164 84.0588V154.52ZM59.0634 73.4681C50.2444 73.4681 43.095 66.3187 43.095 57.4997C43.095 48.6808 50.2444 41.5314 59.0634 41.5314C67.8823 41.5314 75.0317 48.6808 75.0317 57.4997C75.0317 66.3187 67.8827 73.4681 59.0634 73.4681ZM159.258 154.838C159.258 156.843 157.632 158.469 155.627 158.469H137.59C135.585 158.469 133.96 156.843 133.96 154.838V121.788C133.96 116.857 135.406 100.183 121.075 100.183C109.959 100.183 107.704 111.596 107.251 116.718V154.838C107.251 156.843 105.626 158.469 103.621 158.469H86.176C84.1711 158.469 82.5454 156.843 82.5454 154.838V83.7407C82.5454 81.7357 84.1711 80.1101 86.176 80.1101H103.621C105.626 80.1101 107.251 81.7357 107.251 83.7407V89.888C111.373 83.7022 117.499 78.9277 130.541 78.9277C159.423 78.9277 159.258 105.91 159.258 120.736V154.838Z" fill="#0077B7"/>
</svg>
