<svg width="218" height="218" viewBox="0 0 218 218" fill="none" xmlns="http://www.w3.org/2000/svg">
<g clip-path="url(#clip0_23_2)">
<path d="M218 0H0V218H218V0Z" fill="#008D90"/>
<path fill-rule="evenodd" clip-rule="evenodd" d="M97.0421 28.0836C104.132 23.9721 112.868 23.9721 119.958 28.0836L172.542 58.5754C179.632 62.6868 184 70.2846 184 78.5072V139.492C184 147.715 179.632 155.313 172.542 159.425L119.958 189.916C112.868 194.028 104.132 194.028 97.0421 189.916L44.4579 159.425C37.3677 155.313 33 147.715 33 139.492V78.5072C33.0002 70.2846 37.368 62.6868 44.4579 58.5754L97.0421 28.0836ZM111.987 43.1858C110.138 42.1134 107.859 42.1134 106.009 43.1858L54.1761 73.2428C52.3265 74.3153 51.1871 76.2976 51.1871 78.4427V138.556C51.1871 140.701 52.3265 142.683 54.1761 143.756L106.009 173.813C107.859 174.885 110.138 174.885 111.987 173.813L163.82 143.756C165.67 142.683 166.809 140.701 166.809 138.556V78.4427C166.809 76.2976 165.67 74.3153 163.82 73.2428L111.987 43.1858Z" fill="#86FDFF"/>
<path d="M100.012 102C101.11 102 102 102.886 102 103.979V145.011C102 145.557 101.555 146 101.006 146H82.9942C82.4451 146 82 145.557 82 145.011V103.979C82.0002 102.886 82.8903 102 83.9883 102H100.012Z" fill="#86FDFF"/>
<path d="M109 76.001C109 74.8964 109.896 73.9952 110.999 74.0565C115.043 74.2814 119.026 75.1876 122.777 76.7413C127.144 78.5505 131.113 81.2022 134.456 84.5451C137.799 87.888 140.45 91.8567 142.26 96.2244C144.069 100.592 145 105.273 145 110.001C145 114.729 144.069 119.41 142.26 123.778C140.45 128.145 137.799 132.114 134.456 135.457C131.113 138.8 127.144 141.451 122.777 143.261C119.026 144.814 115.043 145.721 110.999 145.945C109.896 146.007 109 145.106 109 144.001V130.001C109 128.896 109.898 128.012 110.996 127.89C112.674 127.703 114.322 127.28 115.888 126.631C118.072 125.726 120.056 124.4 121.728 122.729C123.399 121.057 124.725 119.073 125.63 116.889C126.534 114.705 127 112.365 127 110.001C127 107.637 126.534 105.297 125.63 103.113C124.725 100.929 123.399 98.9445 121.728 97.2731C120.056 95.6016 118.072 94.2757 115.888 93.3711C114.322 92.7223 112.674 92.2993 110.996 92.112C109.898 91.9895 109 91.1055 109 90.001V76.001Z" fill="#86FDFF"/>
<path d="M92.5 72C99.4031 72.0002 104.999 77.5975 104.999 84.501C104.999 91.4042 99.403 97.0008 92.5 97.001C85.5968 97.001 80.0002 91.4044 80 84.501C80 77.5974 85.5967 72 92.5 72ZM96.6699 77.9395C96.4893 77.8174 96.2488 77.8282 96.0791 77.9658L91.6777 81.5342L87.0977 80.4189C86.875 80.3646 86.6501 80.4632 86.5244 80.6562C86.3991 80.8497 86.399 81.0988 86.5215 81.2812L89.2666 85.1143L87.5996 90.5303C87.5353 90.7391 87.6152 90.9659 87.7959 91.0879C87.9766 91.2099 88.217 91.1992 88.3867 91.0615L92.7881 87.4922L97.3682 88.6074C97.5909 88.6617 97.8163 88.5639 97.9424 88.3711C98.0681 88.1779 98.0668 87.9285 97.9443 87.7461L97.9434 87.7451L95.1992 83.9131L96.8662 78.4971C96.9305 78.2884 96.8504 78.0615 96.6699 77.9395Z" fill="#86FDFF"/>
</g>
<defs>
<clipPath id="clip0_23_2">
<rect width="218" height="218" rx="20" fill="white"/>
</clipPath>
</defs>
</svg>
