<svg width="200" height="200" viewBox="0 0 200 200" fill="none" xmlns="http://www.w3.org/2000/svg">
<rect width="200" height="200" rx="20" fill="#C8F1ED"/>
<path d="M99.0473 20.0013C92.4498 20.0316 86.1494 20.5882 80.6056 21.5584C64.2745 24.4121 61.3094 30.385 61.3094 41.4002V55.9479H99.9019V60.7971H61.3094H46.8259C35.6098 60.7971 25.7887 67.465 22.7168 80.1495C19.1734 94.689 19.0162 103.762 22.7168 118.943C25.4601 130.244 32.0115 138.296 43.2275 138.296H56.4965V120.856C56.4965 108.257 67.5178 97.1441 80.6056 97.1441H119.153C129.883 97.1441 138.449 88.4056 138.449 77.7472V41.4002C138.449 31.0556 129.626 23.2849 119.153 21.5584C112.524 20.4669 105.645 19.971 99.0473 20.0013ZM78.1767 31.7017C82.1631 31.7017 85.4185 34.9742 85.4185 38.9978C85.4185 43.0072 82.1631 46.2494 78.1767 46.2494C74.1761 46.2494 70.935 43.0072 70.935 38.9978C70.935 34.9742 74.1761 31.7017 78.1767 31.7017Z" fill="url(#paint0_linear_3_129)"/>
<path d="M143.262 60.7971V77.7472C143.262 90.8883 131.998 101.949 119.153 101.949H80.6056C70.0468 101.949 61.3094 110.887 61.3094 121.346V157.693C61.3094 168.037 70.404 174.122 80.6056 177.09C92.8219 180.642 104.537 181.285 119.153 177.09C128.869 174.307 138.449 168.708 138.449 157.693V143.145H99.9019V138.296H138.449H157.746C168.962 138.296 173.141 130.558 177.042 118.943C181.071 106.986 180.9 95.488 177.042 80.1495C174.27 69.1058 168.976 60.7971 157.746 60.7971H143.262ZM121.582 152.843C125.583 152.843 128.824 156.086 128.824 160.095C128.824 164.119 125.583 167.391 121.582 167.391C117.596 167.391 114.34 164.119 114.34 160.095C114.34 156.086 117.596 152.843 121.582 152.843Z" fill="url(#paint1_linear_3_129)"/>
<defs>
<linearGradient id="paint0_linear_3_129" x1="20" y1="20" x2="108.166" y2="95.9598" gradientUnits="userSpaceOnUse">
<stop stop-color="#5A9FD4"/>
<stop offset="1" stop-color="#306998"/>
</linearGradient>
<linearGradient id="paint1_linear_3_129" x1="120.655" y1="158.872" x2="89.1914" y2="114.296" gradientUnits="userSpaceOnUse">
<stop stop-color="#FFD43B"/>
<stop offset="1" stop-color="#FFE873"/>
</linearGradient>
</defs>
</svg>
