<svg width="200" height="200" viewBox="0 0 200 200" fill="none" xmlns="http://www.w3.org/2000/svg">
<rect width="200" height="200" rx="20" fill="#C8F1ED"/>
<path d="M46.7847 143.037C45.9013 143.792 44.8258 144.287 43.6779 144.467C42.53 144.647 41.3545 144.506 40.2823 144.058L28.8638 139.267C27.7248 138.792 26.751 137.992 26.0638 136.967C25.3767 135.942 25.0067 134.737 25 133.503V66.4999C25.0067 65.2658 25.3767 64.061 26.0638 63.0359C26.751 62.0108 27.7248 61.2108 28.8638 60.7356L40.2823 56.0237C41.3545 55.5759 42.53 55.4343 43.6779 55.6145C44.8258 55.7947 45.9013 56.2898 46.7847 57.0446L49.3449 59.165C48.8257 58.7918 48.2135 58.5692 47.5759 58.5218C46.9382 58.4745 46.2999 58.6042 45.7312 58.8966C45.1626 59.189 44.6858 59.6328 44.3534 60.1791C44.0211 60.7253 43.846 61.3527 43.8476 61.9921V138.011C43.846 138.65 44.0211 139.278 44.3534 139.824C44.6858 140.37 45.1626 140.814 45.7312 141.107C46.2999 141.399 46.9382 141.529 47.5759 141.481C48.2135 141.434 48.8257 141.211 49.3449 140.838L46.7847 143.037Z" fill="#52218A"/>
<path d="M28.8638 139.267C27.7248 138.792 26.751 137.992 26.0638 136.967C25.3767 135.942 25.0067 134.737 25 133.503V132.985C25.0077 133.71 25.2326 134.416 25.6456 135.012C26.0586 135.609 26.6408 136.067 27.317 136.329C27.9932 136.591 28.7325 136.645 29.4393 136.482C30.1462 136.32 30.7882 135.95 31.2825 135.419L128.662 27.7523C130.041 26.3801 131.811 25.4683 133.729 25.1421C135.647 24.8159 137.619 25.0912 139.374 25.9303L170.441 40.8828C172.041 41.6522 173.391 42.8581 174.336 44.3614C175.281 45.8647 175.782 47.6044 175.781 49.38V49.7412C175.78 48.6148 175.46 47.5118 174.857 46.5603C174.254 45.6088 173.393 44.8479 172.375 44.3659C171.357 43.884 170.223 43.7009 169.105 43.8377C167.987 43.9746 166.931 44.4259 166.059 45.1392L49.3449 140.838L46.7847 143.037C45.9013 143.792 44.8258 144.287 43.6779 144.467C42.53 144.647 41.3545 144.506 40.2823 144.058L28.8638 139.267Z" fill="#6C33AF"/>
<path d="M28.8638 60.7356C27.7248 61.2108 26.751 62.0108 26.0638 63.0359C25.3767 64.061 25.0067 65.2658 25 66.4999V67.0182C25.0077 66.293 25.2326 65.5868 25.6456 64.9907C26.0586 64.3946 26.6408 63.9359 27.317 63.6739C27.9932 63.4118 28.7325 63.3585 29.4393 63.5206C30.1462 63.6828 30.7882 64.0531 31.2825 64.5837L128.662 172.251C130.041 173.623 131.811 174.535 133.729 174.861C135.647 175.187 137.619 174.912 139.374 174.073L170.441 159.12C172.041 158.351 173.391 157.145 174.336 155.642C175.281 154.138 175.782 152.399 175.781 150.623V150.262C175.78 151.388 175.46 152.491 174.857 153.443C174.254 154.394 173.393 155.155 172.375 155.637C171.357 156.119 170.223 156.302 169.105 156.165C167.987 156.029 166.931 155.577 166.059 154.864L49.3449 59.165L46.7847 56.9661C45.8934 56.2242 44.8142 55.7435 43.6665 55.5772C42.5189 55.4108 41.3475 55.5654 40.2823 56.0237L28.8638 60.7356Z" fill="#854CC7"/>
<path d="M139.374 174.073C137.619 174.912 135.647 175.187 133.729 174.861C131.811 174.535 130.041 173.623 128.662 172.251C129.436 173.019 130.42 173.542 131.49 173.752C132.56 173.963 133.669 173.852 134.676 173.434C135.684 173.016 136.545 172.309 137.152 171.403C137.758 170.496 138.083 169.431 138.086 168.34V31.6946C138.09 30.6012 137.769 29.5313 137.165 28.6201C136.56 27.7089 135.7 26.9973 134.691 26.5754C133.682 26.1534 132.571 26.04 131.498 26.2495C130.425 26.459 129.438 26.9819 128.662 27.7523C130.041 26.3801 131.811 25.4683 133.729 25.1421C135.647 24.8159 137.619 25.0912 139.374 25.9303L170.441 40.8671C172.041 41.6365 173.391 42.8423 174.336 44.3457C175.281 45.849 175.782 47.5887 175.781 49.3642V150.639C175.782 152.414 175.281 154.154 174.336 155.657C173.391 157.161 172.041 158.367 170.441 159.136L139.374 174.073Z" fill="#B179F1"/>
<g opacity="0.25">
<path fill-rule="evenodd" clip-rule="evenodd" d="M133.201 174.764C135.278 175.238 137.453 174.994 139.374 174.073L170.441 159.136C172.041 158.367 173.391 157.161 174.336 155.657C175.281 154.154 175.782 152.414 175.781 150.639V49.3642C175.782 47.5887 175.281 45.849 174.336 44.3457C173.391 42.8423 172.041 41.6365 170.441 40.8671L139.374 25.9303C137.176 24.8737 134.653 24.7104 132.337 25.4749C130.952 25.9389 129.694 26.7186 128.662 27.7523L78.5901 83.1329L49.3449 59.165L46.7847 56.9661C46.0148 56.3078 45.097 55.8454 44.1097 55.6184C43.1224 55.3914 42.0949 55.4066 41.1147 55.6625C40.8277 55.7259 40.5486 55.8207 40.2823 55.9452L28.8638 60.7356C27.795 61.1769 26.8688 61.9046 26.1871 62.8385C25.5054 63.7724 25.0946 64.8763 25 66.0287C25 66.1858 25 66.3428 25 66.4999V133.503C25 133.66 25 133.817 25 133.974C25.0946 135.127 25.5054 136.231 26.1871 137.165C26.8688 138.099 27.795 138.826 28.8638 139.267L40.2823 143.979C40.5486 144.104 40.8277 144.199 41.1147 144.262C42.0949 144.518 43.1224 144.533 44.1097 144.306C45.097 144.079 46.0148 143.617 46.7847 142.958L49.3449 140.838L78.5901 116.87L128.662 172.251C129.91 173.497 131.483 174.367 133.201 174.764ZM138.086 68.0862L99.1498 100.002L138.086 131.917V68.0862ZM43.8476 78.4367L63.3392 100.002L43.8476 121.566V78.4367Z" fill="url(#paint0_linear_9_22)"/>
</g>
<defs>
<linearGradient id="paint0_linear_9_22" x1="100.391" y1="25.0037" x2="100.391" y2="174.999" gradientUnits="userSpaceOnUse">
<stop stop-color="white"/>
<stop offset="1" stop-color="white" stop-opacity="0"/>
</linearGradient>
</defs>
</svg>
